<?xml version="1.0" standalone="no"?>
<!DOCTYPE svg PUBLIC "-//W3C//DTD SVG 20010904//EN"
 "http://www.w3.org/TR/2001/REC-SVG-20010904/DTD/svg10.dtd">
<svg version="1.0" xmlns="http://www.w3.org/2000/svg"
 width="192.000000pt" height="192.000000pt" viewBox="0 0 192.000000 192.000000"
 preserveAspectRatio="xMidYMid meet">
<metadata>
Created by potrace 1.11, written by Peter Selinger 2001-2013
</metadata>
<g transform="translate(0.000000,192.000000) scale(0.100000,-0.100000)"
fill="#000000" stroke="none">
<path d="M683 1784 c-142 -58 -343 -140 -448 -182 l-190 -77 458 -3 c252 -1
661 -1 909 0 l451 3 -379 149 c-208 82 -416 164 -461 182 l-82 32 -258 -104z"/>
<path d="M350 745 l0 -716 448 4 c246 2 465 7 487 10 159 27 201 44 272 110
86 79 124 176 119 307 -5 151 -85 257 -234 310 l-62 23 49 23 c60 27 122 89
153 152 19 38 23 64 23 137 0 80 -3 97 -29 148 -50 98 -147 170 -265 196 -25
5 -244 10 -503 11 l-458 1 0 -716z m747 406 c98 -45 99 -187 1 -231 -32 -14
-69 -18 -174 -19 l-134 -2 0 136 0 135 133 0 c108 0 140 -4 174 -19z m53 -540
c97 -36 121 -149 46 -224 -35 -35 -103 -47 -266 -47 l-140 0 0 145 0 146 158
-2 c119 -1 168 -5 202 -18z"/>
</g>
</svg>
